# xmcd
#
# Track frame offsets: 
#        150
#        13775
#        28290
#        47265
#        62090
#        77675
#        93972
#        106120
#        118935
#        134250
#        147195
#        159117
#        171317
#        186307
#        202345
#        216097
#
# Disc length: 3094 seconds
#
# Revision: 0
# Processed by: cddbd v1.5.2PL0 Copyright (c) Steve Scherf et al.
# Submitted via: ExactAudioCopy v0.99pb5
#
DISCID=df0c1410
DTITLE=Köpi Koski and Projekti - Tansseissa tavataan 2
DYEAR=2005
DGENRE=Acid Punk
TTITLE0=Istanbul
TTITLE1=Lemmi mua
TTITLE2=Sua vain rakastan
TTITLE3=Ainoa maailmassain
TTITLE4=Tämä ilta
TTITLE5=Taikavoimaa
TTITLE6=Minne häipyivät silmät tummat
TTITLE7=Ei näkemiin, vaan hyvästi
TTITLE8=Saxofonin soitto
TTITLE9=Champs Elysees
TTITLE10=Takametsien kaipuu
TTITLE11=Kaunis rakkaani
TTITLE12=Muistojen tie
TTITLE13=Olen kulkenut vaikean tien
TTITLE14=Myllärin Irene
TTITLE15=Kun vielä tuulee
EXTD=
EXTT0=
EXTT1=
EXTT2=
EXTT3=
EXTT4=
EXTT5=
EXTT6=
EXTT7=
EXTT8=
EXTT9=
EXTT10=
EXTT11=
EXTT12=
EXTT13=
EXTT14=
EXTT15=
PLAYORDER=
